<svg width="249" height="40" viewBox="0 0 249 40" fill="none" xmlns="http://www.w3.org/2000/svg">
<g clip-path="url(#clip0_347_2106)">
<path fill-rule="evenodd" clip-rule="evenodd" d="M2.64676 39.7818H0.00390625V8.85324H2.64676V12.3818H2.73248C4.54676 9.73895 6.71819 8.42466 9.64676 8.42466C15.5753 8.42466 18.8325 14.1389 18.8325 20.4247C18.8325 28.3675 15.1182 32.1389 9.83248 32.1389C6.74676 32.1389 4.90391 31.0818 2.66105 28.7104V39.7818H2.64676ZM99.361 20.3532C99.361 25.5532 101.532 30.0247 106.718 30.0247C109.661 30.0247 111.118 29.0247 113.404 25.4247L115.547 26.5675C113.09 30.5961 110.832 32.1389 106.504 32.1389C100.504 32.1389 96.7468 28.3247 96.7468 20.2818C96.7468 13.2104 100.347 8.42466 106.147 8.42466C112.347 8.42466 115.29 13.2818 115.29 20.3675H99.3753L99.361 20.3532ZM179.932 20.3532C179.932 25.5532 182.075 30.0247 187.29 30.0247C190.232 30.0247 191.675 29.0247 193.961 25.4247L196.104 26.5675C193.675 30.5961 191.418 32.1389 187.061 32.1389C181.09 32.1389 177.304 28.3247 177.304 20.2818C177.304 13.2104 180.918 8.42466 186.732 8.42466C192.918 8.42466 195.875 13.2818 195.875 20.3675H179.961L179.932 20.3532ZM157.747 31.6961H155.204L154.847 28.9247C152.104 31.0675 150.047 32.1247 146.532 32.1247C142.961 32.1247 140.247 29.9247 140.247 26.1532C140.247 19.9104 145.332 18.7818 154.875 16.6675V15.0961C154.875 12.0532 153.561 10.5247 149.647 10.5247C146.932 10.5247 144.675 12.0104 143.004 14.6675L141.261 13.5961C143.261 9.91038 146.061 8.41038 149.747 8.41038C154.932 8.41038 157.39 10.5247 157.39 15.5532V27.5104C157.39 28.6532 157.49 30.1532 157.747 31.6818V31.6961ZM224.975 15.2675C223.79 12.6247 222.075 10.5104 219.032 10.5104C214.747 10.5104 211.832 13.1961 211.832 20.2532C211.832 26.0818 214.461 29.9961 219.032 29.9961C222.29 29.9961 224.032 28.1961 225.89 25.2532L228.004 26.2532C226.075 29.5104 223.39 32.1104 219.032 32.1104C212.604 32.1104 209.175 27.1389 209.175 20.2532C209.175 12.3961 213.147 8.39609 219.032 8.39609C223.347 8.39609 226.032 10.8247 227.39 14.5818L224.961 15.2389L224.975 15.2675ZM34.3325 10.9532H33.1468C30.2468 10.9532 26.461 14.3818 26.461 18.7818V31.6818H23.8325V8.82466H26.461V13.1818H26.5468C27.7753 10.3675 30.261 8.39609 33.1468 8.39609H34.3325V10.9389V10.9532ZM123.375 31.6675H120.718V-0.00390625H123.375V20.9961L133.975 8.85324H137.004L129.575 17.3818L138.147 31.6961H135.204L127.918 19.2104L123.375 24.3104V31.6818V31.6675ZM167.147 31.6675H164.518V8.88181H167.147V13.2389H167.247C168.475 10.4247 170.932 8.45324 173.818 8.45324H175.018V10.9961H173.847C170.947 10.9961 167.161 14.4247 167.161 18.8247V31.7247L167.147 31.6675ZM94.6325 31.6675H77.5753V-0.00390625H80.4753V29.3247H94.6182V31.6961L94.6325 31.6675ZM247.732 31.6675H230.718V30.0104L243.904 10.9532H231.761V8.85324H247.432V10.5247L234.247 29.5818H247.775V31.7247L247.732 31.6675ZM154.775 18.7818C144.318 21.0675 142.918 23.2104 142.918 26.1104C142.918 28.5961 144.632 29.9961 146.99 29.9961C149.461 29.9961 152.49 28.5675 154.775 26.2247V18.7675V18.7818ZM2.66105 25.9247C3.51819 27.4675 6.51819 30.0104 9.11819 30.0104C13.861 30.0104 16.1896 26.2389 16.1896 19.9247C16.1896 15.1675 14.0896 10.5247 9.51819 10.5247C6.61819 10.5247 4.90391 12.3247 2.66105 14.6961V25.9389V25.9247ZM112.661 18.2532C112.132 13.5389 110.09 10.5389 106.09 10.5104C101.418 10.4675 99.4325 15.2247 99.3753 18.2247H112.661V18.2532ZM193.232 18.2532C192.704 13.5389 190.632 10.5389 186.632 10.5104C181.975 10.4675 180.004 15.2247 179.961 18.2247H193.247L193.232 18.2532ZM105.618 6.31038H103.375L108.261 0.253237H111.647L105.618 6.32466V6.31038ZM169.904 6.31038H166.932L161.861 0.253237H164.775L168.39 4.68181L172.004 0.281808H174.932L169.932 6.35324L169.904 6.31038Z" fill="#5C5C5C"/>
<path fill-rule="evenodd" clip-rule="evenodd" d="M201.121 31.713H204.907V27.713H201.121M69.8638 20.2844C69.8638 28.9273 62.8638 35.9273 54.221 35.9273C45.5781 35.9273 38.5781 28.9273 38.5781 20.2844C38.5781 11.6844 45.5781 4.71298 54.2353 4.71298C62.8638 4.68441 69.8638 11.6844 69.8638 20.2844Z" fill="#C1121E"/>
<path fill-rule="evenodd" clip-rule="evenodd" d="M63.9507 17.1969H57.3364V10.5684H51.1221V17.1969H44.5078V23.4112H51.1221V29.9969H57.3364V23.4255H63.9507" fill="white"/>
</g>
<defs>
<clipPath id="clip0_347_2106">
<rect width="248.571" height="40" fill="white"/>
</clipPath>
</defs>
</svg>
